<?xml version="1.0" encoding="UTF-8" standalone="no"?>
<svg
   xmlns:dc="http://purl.org/dc/elements/1.1/"
   xmlns:cc="http://creativecommons.org/ns#"
   xmlns:rdf="http://www.w3.org/1999/02/22-rdf-syntax-ns#"
   xmlns:svg="http://www.w3.org/2000/svg"
   xmlns="http://www.w3.org/2000/svg"
   xmlns:sodipodi="http://sodipodi.sourceforge.net/DTD/sodipodi-0.dtd"
   xmlns:inkscape="http://www.inkscape.org/namespaces/inkscape"
   version="1.1"
   id="svg2"
   xml:space="preserve"
   width="1920"
   height="1080"
   viewBox="0 0 1920 1080"
   sodipodi:docname="helmholtz_ai_dark_footer.svg"
   inkscape:version="1.0.1 (3bc2e813f5, 2020-09-07)"><metadata
     id="metadata8"><rdf:RDF><cc:Work
         rdf:about=""><dc:format>image/svg+xml</dc:format><dc:type
           rdf:resource="http://purl.org/dc/dcmitype/StillImage" /><dc:title></dc:title></cc:Work></rdf:RDF></metadata><defs
     id="defs6"><clipPath
       clipPathUnits="userSpaceOnUse"
       id="clipPath62"><path
         d="M 0,0 H 191.9 V 21.46 H 0 Z"
         id="path60" /></clipPath></defs><sodipodi:namedview
     pagecolor="#ffffff"
     bordercolor="#666666"
     borderopacity="1"
     objecttolerance="10"
     gridtolerance="10"
     guidetolerance="10"
     inkscape:pageopacity="0"
     inkscape:pageshadow="2"
     inkscape:window-width="2915"
     inkscape:window-height="1785"
     id="namedview4"
     showgrid="false"
     inkscape:zoom="0.86295282"
     inkscape:cx="743.09684"
     inkscape:cy="831.04181"
     inkscape:window-x="0"
     inkscape:window-y="0"
     inkscape:window-maximized="0"
     inkscape:current-layer="g10"
     fit-margin-top="0"
     fit-margin-left="0"
     fit-margin-right="0"
     fit-margin-bottom="0" /><g
     id="g10"
     inkscape:groupmode="layer"
     inkscape:label="slides"
     transform="matrix(1.3333333,0,0,-1.3333333,56.714431,16.77064)"><g
       id="g1036"
       transform="matrix(2.9042183,0,0,2.9042183,81.679137,-798.80871)"><g
         id="g14"
         transform="translate(0,283.465)"><g
           id="g16"><g
             id="g18"><g
               id="g20"><path
                 d="m 340.16185,-271.56044 h -56.97104 c -1.10048,0 -2.62337,-0.63081 -3.40151,-1.40895 l -2.6783,-2.67831 c -0.77816,-0.77816 -0.51688,-1.40896 0.5836,-1.40896 h 56.97103"
                 style="fill:#8cb423;fill-opacity:1;fill-rule:nonzero;stroke:none"
                 id="path22" /></g></g></g></g><g
         id="g26"
         style="fill:#005aa0;fill-opacity:1"
         transform="matrix(0.9943447,0,0,1,7.9891072,283.465)"><g
           id="g28"
           style="fill:#005aa0;fill-opacity:1"><g
             id="g30"
             style="fill:#005aa0;fill-opacity:1"><path
               d="M 448.09451,-283.46822 H -48.81973 c -1.10047,0 -1.99256,0.89209 -1.99256,1.99256 v 3.09986 c 0,1.10049 0.89209,1.99256 1.99256,1.99256 h 375.85951 c 1.10046,0 2.62335,0.63081 3.4015,1.40895 l 2.67832,2.67832 c 0.77814,0.77813 2.30102,1.40895 3.40149,1.40895 h 111.39474"
               style="fill:#005aa0;fill-opacity:1;fill-rule:nonzero;stroke:none"
               id="path32" /></g></g></g><g
         id="g34"
         transform="translate(10.909,283.465)"><g
           id="g36"><g
             id="g38"><g
               id="g40"><g
                 id="g42"><g
                   id="g44"
                   transform="scale(-1)"><g
                     id="g46" /><g
                     id="g48"
                     transform="rotate(180,-30.5455,36)"><g
                       id="g50" /><g
                       id="g52"
                       transform="translate(339.78,-279.633)"><g
                         id="g54"
                         transform="matrix(0.25,0,0,0.25,-61.091,72)"><g
                           id="g56"><g
                             id="g58"
                             clip-path="url(#clipPath62)"><g
                               id="g64"
                               transform="scale(0.1)"><path
                                 d="m 114.719,127.762 v 86.867 H 155.91 V 0 H 114.719 V 86.5703 H 41.1641 V 0 H 0 v 214.629 h 41.1641 v -86.867 h 73.5549"
                                 style="fill:#ffffff;fill-opacity:1;fill-rule:nonzero;stroke:none"
                                 id="path66" /><path
                                 d="m 337.363,214.629 v -41.164 h -94.16 v -45.703 h 81.738 V 86.5703 H 243.203 V 41.1602 h 94.16 V 0 H 222.316 c -1.82,0 -3.644,0.613281 -4.851,2.11719 L 204.152,15.4297 c -1.504,1.2109 -2.117,3.0391 -2.117,4.8516 V 194.371 c 0,1.797 0.613,3.621 2.117,4.828 l 13.313,13.309 c 1.207,1.238 3.031,2.121 4.851,2.121 h 115.047"
                                 style="fill:#ffffff;fill-opacity:1;fill-rule:nonzero;stroke:none"
                                 id="path68" /><path
                                 d="m 401.035,0 c -1.828,0 -3.648,0.613281 -4.859,2.11719 L 382.863,15.4297 c -1.527,1.2109 -2.117,3.0391 -2.117,4.8516 V 214.629 h 41.168 V 41.1602 h 89.598 V 0 H 401.035"
                                 style="fill:#ffffff;fill-opacity:1;fill-rule:nonzero;stroke:none"
                                 id="path70" /><path
                                 d="M 732.578,214.629 V 0 H 691.41 V 118.668 L 657.816,48.4375 c -1.207,-2.4141 -3.628,-3.9453 -6.062,-3.9453 h -24.211 c -2.734,0 -5.152,1.5312 -6.359,3.9453 L 587.586,118.668 V 0 h -41.164 v 214.629 h 41.164 l 52.062,-108.981 51.762,108.981 h 41.168"
                                 style="fill:#ffffff;fill-opacity:1;fill-rule:nonzero;stroke:none"
                                 id="path72" /><path
                                 d="m 890.734,127.762 v 86.867 h 41.188 V 0 H 890.734 V 86.5703 H 817.176 V 0 h -41.16 v 214.629 h 41.16 v -86.867 h 73.558"
                                 style="fill:#ffffff;fill-opacity:1;fill-rule:nonzero;stroke:none"
                                 id="path74" /><path
                                 d="M 1087.64,61.1602 V 153.18 c 0,1.82 -0.91,3.644 -2.12,4.851 l -13.02,13.317 c -1.52,1.207 -3.33,2.117 -5.15,2.117 h -36.93 c -1.82,0 -3.32,-0.91 -4.85,-2.117 l -13.02,-13.317 c -1.5,-1.207 -2.12,-3.031 -2.12,-4.851 V 61.1602 c 0,-1.8243 0.62,-3.3282 2.12,-4.8594 l 13.02,-13.0117 c 1.53,-1.5039 3.03,-2.1289 4.85,-2.1289 h 36.93 c 1.82,0 3.63,0.625 5.15,2.1289 l 13.02,13.0117 c 1.21,1.5312 2.12,3.0351 2.12,4.8594 z m 9.69,143.1918 21.49,-21.204 c 6.36,-6.355 9.99,-15.132 9.99,-24.203 V 55.7148 c 0,-9.1054 -3.63,-17.871 -9.99,-24.2421 L 1097.33,9.98047 C 1090.97,3.62109 1082.19,0 1073.09,0 h -48.11 c -9.1,0 -18.17,3.32813 -24.53,9.98047 L 979.254,31.4727 c -6.359,6.3711 -9.988,15.1367 -9.988,24.2421 V 158.945 c 0,9.071 3.629,17.848 9.988,24.203 l 21.196,21.204 c 6.66,6.652 15.43,10.277 24.53,10.277 h 48.11 c 9.1,0 17.58,-3.918 24.24,-10.277"
                                 style="fill:#ffffff;fill-opacity:1;fill-rule:nonzero;stroke:none"
                                 id="path76" /><path
                                 d="m 1185.53,0 c -1.83,0 -3.65,0.613281 -4.86,2.11719 l -13.31,13.31251 c -1.53,1.2109 -2.12,3.0391 -2.12,4.8516 V 214.629 h 41.17 V 41.1602 H 1296 V 0 h -110.47"
                                 style="fill:#ffffff;fill-opacity:1;fill-rule:nonzero;stroke:none"
                                 id="path78" /><path
                                 d="m 1293.05,173.465 v 41.164 h 155 v -41.164 h -56.92 V 0 h -41.17 v 173.465 h -56.91"
                                 style="fill:#ffffff;fill-opacity:1;fill-rule:nonzero;stroke:none"
                                 id="path80" /><path
                                 d="m 1607.41,212.508 13.32,-13.309 c 1.2,-1.207 2.12,-3.031 2.12,-4.828 V 183.77 L 1532.63,41.1602 h 89.01 V 0 h -122.91 c -1.82,0 -3.65,0.613281 -4.85,2.11719 l -13.31,13.31251 c -1.22,1.2109 -2.13,3.0391 -2.13,4.8516 v 12.4023 l 89.01,140.7814 h -90.21 v 41.164 h 125.32 c 1.82,0 3.64,-0.883 4.85,-2.121"
                                 style="fill:#ffffff;fill-opacity:1;fill-rule:nonzero;stroke:none"
                                 id="path82" /><path
                                 d="m 1724.32,83.0156 h 50.5 l -25.39,72.3004 z M 1709.78,41.8867 1694.97,0.128906 H 1651.4 L 1725.21,209.773 c 0.9,3.004 3.34,4.832 6.35,4.832 h 36 c 2.71,0 5.44,-1.828 6.36,-4.546 L 1847.71,0.128906 h -43.54 L 1789.35,41.8867 h -79.57"
                                 style="fill:#80cd33;fill-opacity:1;fill-rule:nonzero;stroke:none"
                                 id="path84" /><path
                                 d="m 1918.99,0.128906 h -41.13 V 214.605 h 41.13 V 0.128906"
                                 style="fill:#80cd33;fill-opacity:1;fill-rule:nonzero;stroke:none"
                                 id="path86" /></g></g></g></g></g><g
                       id="g88"
                       transform="translate(-61.091,72)" /></g></g></g></g></g></g></g></g></g></svg>
